<?xml version="1.0" encoding="UTF-8" standalone="no"?>
<!-- Created with Inkscape (http://www.inkscape.org/) -->

<svg
   xmlns:dc="http://purl.org/dc/elements/1.1/"
   xmlns:cc="http://creativecommons.org/ns#"
   xmlns:rdf="http://www.w3.org/1999/02/22-rdf-syntax-ns#"
   xmlns:svg="http://www.w3.org/2000/svg"
   xmlns="http://www.w3.org/2000/svg"
   xmlns:sodipodi="http://sodipodi.sourceforge.net/DTD/sodipodi-0.dtd"
   xmlns:inkscape="http://www.inkscape.org/namespaces/inkscape"
   width="800"
   height="600"
   viewBox="0 0 800.00001 600.00001"
   id="svg2"
   version="1.1"
   inkscape:version="0.91 r13725"
   sodipodi:docname="perspective.svg"
   inkscape:export-filename="/Users/nadjib/workspace/global-game-jam-2019/assets/perspective.png"
   inkscape:export-xdpi="96"
   inkscape:export-ydpi="96">
  <defs
     id="defs4" />
  <sodipodi:namedview
     id="base"
     pagecolor="#ffffff"
     bordercolor="#666666"
     borderopacity="1.0"
     inkscape:pageopacity="0.0"
     inkscape:pageshadow="2"
     inkscape:zoom="1"
     inkscape:cx="393.57143"
     inkscape:cy="200"
     inkscape:document-units="px"
     inkscape:current-layer="layer1"
     showgrid="false"
     units="px"
     inkscape:window-width="1328"
     inkscape:window-height="723"
     inkscape:window-x="38"
     inkscape:window-y="1"
     inkscape:window-maximized="1" />
  <metadata
     id="metadata7">
    <rdf:RDF>
      <cc:Work
         rdf:about="">
        <dc:format>image/svg+xml</dc:format>
        <dc:type
           rdf:resource="http://purl.org/dc/dcmitype/StillImage" />
        <dc:title></dc:title>
      </cc:Work>
    </rdf:RDF>
  </metadata>
  <g
     inkscape:label="Layer 1"
     inkscape:groupmode="layer"
     id="layer1"
     transform="translate(0,-452.36216)">
    <rect
       style="fill:#000000;fill-opacity:0.1091954;stroke:#000000;stroke-width:4;stroke-miterlimit:4;stroke-dasharray:none;stroke-opacity:1"
       id="rect3336"
       width="800"
       height="600"
       x="0"
       y="452.36215" />
    <rect
       y="666.64789"
       x="285.71429"
       height="171.42856"
       width="228.57143"
       id="rect4148"
       style="fill:#ffffff;fill-opacity:0.64313728;stroke:#000000;stroke-width:1.14285719;stroke-miterlimit:4;stroke-dasharray:none;stroke-opacity:1" />
    <circle
       id="path4150"
       style="fill:#000000;stroke:none"
       cx="5.7142859"
       cy="460.93359"
       r="1.5" />
    <circle
       id="path4152"
       style="fill:#000000;stroke:none"
       cx="285.71429"
       cy="669.505"
       r="1.5" />
    <path
       style="fill:none;fill-rule:evenodd;stroke:#000000;stroke-width:1px;stroke-linecap:butt;stroke-linejoin:miter;stroke-opacity:1"
       d="m 288.57143,669.50502 c -5.71429,-4.76191 -11.42857,-9.52381 -17.14286,-14.28572 0,0.95238 0.67344,3.53058 0,2.85715 -2.4281,-2.42811 -3.28618,-6.14333 -5.71428,-8.57143 -0.67344,-0.67344 -2.00531,0.42591 -2.85715,0 -3.42857,-1.71429 -5.14285,-6.85715 -8.57143,-8.57143 -0.85183,-0.42592 -2.1837,0.67343 -2.85714,0 -1.50585,-1.50585 -1.35129,-4.20844 -2.85714,-5.71429 -0.67344,-0.67343 -2.00531,0.42592 -2.85714,0 -1.20468,-0.60234 -1.65247,-2.2548 -2.85715,-2.85714 -0.85183,-0.42592 -2.43122,0.85184 -2.85714,0 -0.85184,-1.70367 0.85184,-4.01061 0,-5.71429 -0.85184,-1.70367 -4.36742,1.34687 -5.71429,0 0,-7.61904 0.95239,0.95239 -2.85714,-2.85714 -1.50585,-1.50585 -2.85714,-3.5847 -2.85714,-5.71428 0,-1.34687 3.80952,3.80952 2.85714,2.85714 -1.90476,-1.90476 -3.80952,-3.80953 -5.71428,-5.71429 -0.95239,-0.95238 -1.65247,-2.2548 -2.85715,-2.85714 -0.85183,-0.42592 -2.1837,0.67344 -2.85714,0 -0.67344,-0.67344 0.67344,-2.18371 0,-2.85714 -0.67344,-0.67344 -2.43123,0.85183 -2.85714,0 -0.85184,-1.70367 1.34687,-4.36742 0,-5.71429 -0.95238,-0.95238 -1.51028,2.85714 -2.85715,2.85714 -0.95238,0 0.30117,-1.95363 0,-2.85714 -0.67343,-2.0203 -1.35129,-4.20844 -2.85714,-5.71428 -0.67343,-0.67344 0.67344,3.53057 0,2.85714 -1.50585,-1.50585 -1.35129,-4.20844 -2.85714,-5.71429 -0.67344,-0.67343 -1.90476,0 -2.85714,0 -0.95239,-1.90476 -1.3513,-4.20844 -2.85715,-5.71428 -0.67343,-0.67344 0.67344,3.53058 0,2.85714 -1.50584,-1.50585 -1.35129,-4.20844 -2.85714,-5.71429 -0.67344,-0.67343 0.67344,2.18371 0,2.85715 -0.67344,0.67343 -2.18371,0.67343 -2.85714,0 -1.50585,-1.50585 -1.3513,-4.20844 -2.85715,-5.71429 -0.67343,-0.67343 0,1.90476 0,2.85714 -0.95238,0 -2.1837,0.67344 -2.85714,0 -1.50585,-1.50584 -1.35129,-4.20843 -2.85714,-5.71428 -0.67344,-0.67344 0.95238,2.85714 0,2.85714 -3.76471,0 -1.94958,-5.71428 -5.71429,-5.71428 -0.95238,0 0.67344,3.53057 0,2.85714 -1.50584,-1.50585 -1.35129,-4.20844 -2.85714,-5.71429 -0.67344,-0.67343 -2.06471,0.52829 -2.85714,0 -2.24133,-1.49422 -3.30493,-4.50961 -5.71429,-5.71428 -0.85183,-0.42592 0.67344,3.53058 0,2.85714 -1.50585,-1.50585 -1.35129,-4.20844 -2.85714,-5.71429 -0.67344,-0.67343 0.85183,3.28306 0,2.85715 -2.1175,-1.05875 -9.18262,-8.57143 -5.71429,-8.57143 0.95238,0 0.85184,3.28306 0,2.85714 -2.40935,-1.20468 -4.22006,-3.47296 -5.71428,-5.71428 -0.52829,-0.79243 0.95238,-2.85715 0,-2.85715 -1.34687,0 -1.90476,3.80953 -2.85715,2.85715 -1.34687,-1.34687 0.85184,-4.01062 0,-5.71429 -0.42591,-0.85184 -2.1837,0.67344 -2.85714,0 -0.67343,-0.67344 0.95238,-2.85714 0,-2.85714 -2.12959,0 -3.5847,2.85714 -5.71428,2.85714 -1.34687,0 2.85714,-1.51027 2.85714,-2.85714 0,-1.34687 -1.51027,-2.85715 -2.85714,-2.85715 -0.95239,0 0.67343,2.18371 0,2.85715 -0.67344,0.67343 -2.18371,0.67343 -2.85715,0 -1.50584,-1.50585 -0.95238,-4.76191 -2.85714,-5.71429 -1.20468,-0.60234 -1.90476,3.80952 -2.85714,2.85714 -1.34687,-1.34687 1.70367,-4.86245 0,-5.71428 -1.90476,-0.95238 -3.69398,3.53058 -5.71429,2.85714 -6.6904,-2.23013 -1.33333,-5.52381 -2.85714,-8.57143 -0.60234,-1.20467 -1.90476,-1.90476 -2.85714,-2.85714 -0.95239,-0.95238 -1.65247,-2.2548 -2.85715,-2.85714 -0.85183,-0.42592 -2.0053,0.42591 -2.85714,0 -1.20468,-0.60234 -1.65247,-2.25481 -2.85714,-2.85715 -0.85184,-0.42591 -2.43123,0.85184 -2.85715,0 -0.85183,-1.70367 1.34687,-4.36741 0,-5.71428 -0.95238,-0.95238 -1.65246,3.45948 -2.85714,2.85714 -1.90476,-0.95238 -2.18371,-3.69398 -2.85714,-5.71428 -0.30117,-0.90351 0.95238,-2.85715 0,-2.85715 -1.34687,0 -1.51027,2.85715 -2.85714,2.85715 -0.95239,0 0.42591,-2.00531 0,-2.85715 -5.945376,-11.89074 0.19724,3.05439 -5.71429,-2.85714 -0.673435,-0.67343 0.95238,-2.85714 0,-2.85714 -1.34687,0 -1.904762,3.80952 -2.857143,2.85714 -1.34687,-1.34687 1.34687,-4.36742 0,-5.71429 -0.952381,-0.95238 -1.510273,2.85715 -2.857143,2.85715 -1.904762,0 1.904762,-5.71429 0,-5.71429 -2.129588,0 -3.584697,2.85714 -5.714285,2.85714 -1.34687,0 2.254804,-1.65246 2.857142,-2.85714 2.698413,-5.39682 -4.444444,-1.5873 -5.714285,-2.85714 -0.952381,-0.95238 2.254804,-1.65247 2.857143,-2.85714 0.425917,-0.85184 0.952381,-2.85715 0,-2.85715 -17.716792,0 -2.857143,4.32537 -2.857143,2.85715 0,-1.34687 -2.254805,-1.65247 -2.857143,-2.85715 -0.425918,-0.85183 0.952381,-2.85714 0,-2.85714 -1.34687,0 -1.510273,2.85714 -2.857143,2.85714 -0.952381,0 0.425918,-2.00531 0,-2.85714 -0.602339,-1.20468 -1.510273,-2.85714 -2.857143,-2.85714 -0.952381,0 0,1.90476 0,2.85714 -1.904762,0 -4.010615,0.85183 -5.714286,0 -1.70367,-0.85183 1.703671,-4.86245 0,-5.71429 -1.70367,-0.85183 -4.010614,0.85184 -5.714285,0 -0.851836,-0.42591 -0.952381,-2.85714 0,-2.85714 0.952381,0 0.952381,2.85714 0,2.85714 -1.34687,0 -2.254805,-1.65246 -2.857143,-2.85714 -0.425918,-0.85183 0.952381,-2.85714 0,-2.85714 -2.129589,0 -3.584697,2.85714 -5.714286,2.85714 -1.34687,0 2.254804,-1.65246 2.857143,-2.85714 0.425918,-0.85184 0.952381,-2.85714 0,-2.85714 -2.129589,0 -3.584697,2.85714 -5.714286,2.85714 -1.34687,0 3.809524,-1.90476 2.857143,-2.85714 -1.34687,-1.34687 -3.809524,0 -5.714286,0 -0.952381,0 3.530578,0.67343 2.857143,0 -1.505846,-1.50585 -3.584697,-2.85715 -5.714285,-2.85715 -0.952381,0 0.952381,2.85715 0,2.85715 -0.952381,0 0.673435,-2.18371 0,-2.85715 -0.673435,-0.67343 -2.183708,0.67344 -2.857143,0 -0.673435,-0.67343 0.952381,-2.85714 0,-2.85714 -2.129589,0 -3.584697,2.85714 -5.714286,2.85714 -1.34687,0 3.809524,-1.90476 2.857143,-2.85714 -0.613648,-0.61365 -13.35297,0 -14.285714,0 -0.952381,0 3.809523,0 2.857142,0 -3.809523,0 -7.619047,0 -11.428571,0 -0.952381,0 3.530578,0.67343 2.857143,0 -1.505847,-1.50585 -3.584697,-2.85714 -5.714286,-2.85714 -1.34687,0 1.510273,2.85714 2.857143,2.85714 0.952381,0 0.851835,-2.43122 0,-2.85714 -1.703671,-0.85184 -3.809524,0 -5.714286,0 -0.952381,0 3.530578,0.67343 2.857143,0 -1.505846,-1.50585 -3.584697,-2.85715 -5.714286,-2.85715 -1.34687,0 1.510273,2.85715 2.857143,2.85715 0.952381,0 0.673435,-2.18371 0,-2.85715 -0.673435,-0.67343 -2.005307,0.42592 -2.857143,0 -1.204677,-0.60233 -3.8095234,-1.90476 -2.8571424,-2.85714 0.9523809,-0.95238 1.5102724,2.85714 2.8571424,2.85714 1.867148,0 -0.989994,-5.71428 -2.8571424,-5.71428 -0.952381,0 0.673435,2.18371 0,2.85714 -0.6734351,0.67344 -2.8571429,0.95238 -2.8571429,0 0,-1.34687 2.8571429,-1.51027 2.8571429,-2.85714 0,-1.34687 -1.5102728,-2.85714 -2.8571429,-2.85714 -1.34687,0 -1.9047619,3.80952 -2.8571428,2.85714 -0.952381,-0.95238 2.8571428,-1.51027 2.8571428,-2.85714 0,-1.90477 -5.7142857,1.90476 -5.7142857,0 0,-9.47595 5.3536384,0 2.8571429,0 -0.952381,0 0.8518354,-2.43123 0,-2.85715 -10.7936508,-5.39682 -5.5555556,2.69842 -2.8571429,0 0.67343503,-0.67343 0,-1.90476 0,-2.85714"
       id="path4154"
       inkscape:connector-curvature="0" />
    <path
       style="fill:none;fill-rule:evenodd;stroke:#000000;stroke-width:1px;stroke-linecap:butt;stroke-linejoin:miter;stroke-opacity:1"
       d="m 517.14286,660.93359 c 4.7619,-1.90476 9.69844,-3.42065 14.28571,-5.71429 1.20468,-0.60234 1.70221,-2.16418 2.85714,-2.85714 3.65222,-2.19133 7.73057,-3.60114 11.42858,-5.71429 2.98142,-1.70367 5.71428,-3.80952 8.57142,-5.71428 2.85715,-1.90476 5.82435,-3.65397 8.57143,-5.71429 1.0775,-0.80812 1.70221,-2.16418 2.85715,-2.85714 3.65221,-2.19133 7.77635,-3.52296 11.42857,-5.71429 2.30986,-1.38591 3.47296,-4.22006 5.71428,-5.71428 1.77193,-1.18128 3.69398,-2.18371 5.71429,-2.85714 0.90351,-0.30117 2.18371,0.67343 2.85714,0 0.67344,-0.67344 -0.42592,-2.00531 0,-2.85715 1.63774,-3.27548 5.96147,-3.97431 8.57143,-5.71428 1.12066,-0.74711 1.73648,-2.11004 2.85714,-2.85715 1.77193,-1.18128 4.76191,-0.95238 5.71429,-2.85714 0.60234,-1.20468 -3.80953,-1.90476 -2.85714,-2.85714 2.12958,-2.12959 6.06554,-1.18656 8.57142,-2.85714 7.61905,-5.07937 -11.44839,-0.94578 2.85715,-5.71429 1.80701,-0.60234 3.90727,0.60234 5.71428,0 5.76481,-1.9216 0.002,-5.71527 5.71429,-8.57143 0.85183,-0.42592 2.00531,0.42592 2.85714,0 2.40936,-1.20468 3.30493,-4.50961 5.71429,-5.71428 0.85183,-0.42592 2.0053,0.42591 2.85714,0 2.40935,-1.20468 3.30493,-4.50961 5.71429,-5.71429 0.85183,-0.42592 2.1837,0.67344 2.85714,0 1.50585,-1.50585 0.95238,-4.7619 2.85714,-5.71429 1.20468,-0.60233 1.51027,2.85715 2.85714,2.85715 0.95239,0 -0.67343,-2.18371 0,-2.85715 1.50585,-1.50584 3.94237,-1.67586 5.71429,-2.85714 1.12066,-0.74711 1.73648,-2.11003 2.85714,-2.85714 1.77193,-1.18128 3.94236,-1.67586 5.71429,-2.85714 2.24133,-1.49422 3.47296,-4.22007 5.71428,-5.71429 1.77193,-1.18128 3.69398,-2.18371 5.71429,-2.85714 0.90351,-0.30117 2.18371,0.67343 2.85714,0 0.67344,-0.67344 -0.67343,-2.18371 0,-2.85715 0.67344,-0.67343 2.00531,0.42592 2.85715,0 2.40935,-1.20467 3.47295,-4.22006 5.71428,-5.71428 -0.32537,-5.41265 6.66667,-1.90476 8.57143,-2.85714 1.20468,-0.60234 1.65247,-2.25481 2.85714,-2.85715 0.85184,-0.42591 2.18371,0.67344 2.85715,0 0.67343,-0.67343 -0.42592,-2.0053 0,-2.85714 0.60233,-1.20468 1.90476,-1.90476 2.85714,-2.85714 0.95238,-0.95238 1.65246,-2.25481 2.85714,-2.85715 0.85184,-0.42591 2.00531,0.42592 2.85714,0 2.62588,-1.31293 9.2606,-10.70591 11.42858,-11.42857 1.80701,-0.60234 3.90727,0.60234 5.71428,0 1.27775,-0.42591 1.90476,-1.90476 2.85714,-2.85714 0.95239,-0.95238 2.11004,-1.73648 2.85715,-2.85714 1.18128,-1.77193 1.08522,-4.533 2.85714,-5.71429 1.58486,-1.05657 4.36742,1.34687 5.71429,0 0.95238,-0.95238 -3.45949,-1.65246 -2.85715,-2.85714 0.95238,-1.90476 3.69398,-2.18371 5.71429,-2.85714 0.90351,-0.30117 2.85714,0.95238 2.85714,0 0,-4.20402 -10.14938,-2.85715 2.85714,-2.85715 1.90477,0 -16.19047,0.95238 -2.85714,-5.71428 17.71679,0.27137 2.85714,4.20401 2.85714,2.85714 0,-4.33551 4.00677,-2.28797 5.71429,-2.85714 2.02031,-0.67344 4.20844,-1.3513 5.71429,-2.85715 4.44653,-4.44653 0.86466,-8.85965 8.57142,-11.42857 1.27776,-0.42591 1.51028,2.85715 2.85715,2.85715 0.55117,0 4.32702,-4.78945 5.71428,-5.71429 1.77193,-1.18128 3.94236,-1.67586 5.71429,-2.85714 1.12066,-0.74711 1.65246,-2.25481 2.85714,-2.85715 0.85184,-0.42591 2.00531,0.42592 2.85714,0 8.73949,-4.36974 -5.88234,-4.20168 2.85715,-8.57142 9.62248,-4.81125 6.47702,6.47702 2.85714,2.85714 -4.93999,-4.93999 12.5513,-2.85714 2.85714,-2.85714"
       id="path4156"
       inkscape:connector-curvature="0" />
    <path
       style="fill:none;fill-rule:evenodd;stroke:#000000;stroke-width:1px;stroke-linecap:butt;stroke-linejoin:miter;stroke-opacity:1"
       d="m 511.42857,835.2193 c 4.76191,0 9.52381,0 14.28572,0 0.95238,0 -3.38543,-0.79243 -2.85715,0 2.85715,2.85715 5.71429,5.71429 8.57143,8.57143 0,0.95238 -0.42592,2.00531 0,2.85714 1.53567,3.07134 3.80953,5.71429 5.71429,8.57143 1.90476,2.85715 3.28618,6.14333 5.71428,8.57143 1.50585,1.50585 4.61862,1.03104 5.71429,2.85714 2.0203,3.36718 0.83684,8.0614 2.85714,11.42858 1.09567,1.8261 4.01062,1.57939 5.71429,2.85714 2.15499,1.61624 4.22006,3.47296 5.71428,5.71428 2.36257,3.54385 3.0536,8.10272 5.71429,11.42858 1.33034,1.66292 4.01061,1.57939 5.71428,2.85714 4.30999,3.23249 7.22166,8.06304 11.42858,11.42857 2.68139,2.14511 6.14332,3.28618 8.57142,5.71429 2.42811,2.4281 2.85715,6.66666 5.71429,8.57142 1.12066,0.74711 1.57939,-3.28306 2.85714,-2.85714 5.11102,1.70367 6.31756,9.7249 11.42857,11.42857 1.27776,0.42592 1.90477,-1.90476 2.85715,-2.85714 0.95238,1.90476 1.35129,4.20844 2.85714,5.71429 0.9973,0.9973 7.97844,-1.18599 8.57143,0 0,18.9519 -1.34687,-1.34687 2.85714,2.85714 1.34687,1.34687 -1.34687,4.36741 0,5.71428 0.95238,0.95239 1.65247,-3.45948 2.85714,-2.85714 1.90477,0.95238 1.67586,3.94236 2.85715,5.71429 0.74711,1.12066 2.11003,1.73648 2.85714,2.85714 1.18128,1.77192 0.95238,4.7619 2.85714,5.71429 1.20468,0.60233 1.65247,-3.45949 2.85715,-2.85715 0.0409,0.0205 3.51337,8.57143 5.71428,8.57143 6.8254,0 -2.22222,-13.33333 8.57143,2.85714 0.52829,0.79243 -0.95238,2.85715 0,2.85715 2.12959,0 3.5847,-2.85715 5.71429,-2.85715 1.34687,0 1.57939,2.43123 2.85714,2.85715 1.80701,0.60234 3.90727,-0.60234 5.71428,0 1.27776,0.42591 1.57939,2.43122 2.85715,2.85714 1.80701,0.60234 4.36741,-1.34687 5.71428,0 2.12959,2.12959 0.72756,6.44184 2.85715,8.57143 1.34687,1.34687 3.90727,-0.60234 5.71428,0 5.68557,1.89519 1.33333,2.66667 2.85714,5.71428 0.60234,1.20468 1.65247,2.25481 2.85715,2.85715 0.85183,0.42591 2.43122,-0.85184 2.85714,0 0.85184,1.70367 -0.60234,3.90727 0,5.71428 3.04762,9.1429 2.66667,-1.52381 5.71429,0 1.90476,0.95238 1.35129,4.20844 2.85714,5.7143 0.67343,0.6734 -0.67344,-3.53059 0,-2.85715 1.50585,1.50584 0.95238,4.76195 2.85714,5.71425 1.20468,0.6024 1.57939,-3.283 2.85714,-2.8571 2.55551,0.8518 3.15878,4.8624 5.71429,5.7143 1.27775,0.4259 1.51027,-2.8572 2.85714,-2.8572 2.69374,0 3.02055,5.7143 5.71429,5.7143 0.95238,0 -0.67344,-2.1837 0,-2.8571 0.67343,-0.6735 2.18371,-0.6735 2.85714,0 1.50585,1.5058 0.95238,4.7619 2.85714,5.7143 1.20468,0.6023 1.65247,-2.2548 2.85715,-2.8572 0.75126,-0.3756 9.93451,0 11.42857,0 0.95238,0 1.90476,0 2.85714,0 0.95238,0 2.85714,-0.9524 2.85714,0 0,0.9524 -3.80952,0 -2.85714,0 1.90476,0 3.80953,0 5.71429,0 0.95238,0 2.1837,-0.6734 2.85714,0 0.42017,0.4202 -0.33613,8.5715 0,8.5715 1.34687,0 1.51027,-2.8572 2.85714,-2.8572 1.90476,0 -1.90476,5.7143 0,5.7143 1.34687,0 1.51028,-2.8571 2.85715,-2.8571 0.95238,0 0,1.9047 0,2.8571 0,0.9524 0.95238,2.8571 0,2.8571 -1.90477,0 0.95238,-6.6666 2.85714,-2.8571 8.09524,16.1905 -4.04762,2.8571 0,2.8571 1.34687,0 2.85714,1.5103 2.85714,2.8572 0,0.9524 -2.18371,-0.6735 -2.85714,0 -0.67344,0.6734 -0.95238,2.8571 0,2.8571 1.34687,0 1.51027,-2.8571 2.85714,-2.8571 0.95238,0 0,1.9047 0,2.8571 0,0.9524 0.95238,2.8572 0,2.8572 -0.95238,0 -0.67343,-2.1837 0,-2.8572 0.67344,-0.6734 2.18371,-0.6734 2.85714,0 0.67344,0.6735 0,1.9048 0,2.8572 0,0.9523 0.95239,2.8571 0,2.8571 -0.95238,0 -0.95238,-2.8571 0,-2.8571 0.95239,0 -0.42591,2.0053 0,2.8571 4.73798,9.476 2.00339,0 2.85715,0 0.95238,0 0,1.9048 0,2.8572 0,0.9523 0.95238,2.8571 0,2.8571 -0.95238,0 -0.95238,-2.8571 0,-2.8571 1.34687,0 2.2548,1.6524 2.85714,2.8571 0.42592,0.8518 -0.95238,2.8571 0,2.8571 1.34687,0 1.51027,-2.8571 2.85714,-2.8571 1.90476,0 -1.90476,5.7143 0,5.7143 1.34687,0 1.90476,-3.8095 2.85715,-2.8572 1.34687,1.3469 0,3.8096 0,5.7143 0,0.9524 -0.95239,-2.8571 0,-2.8571 2.12958,0 4.98673,5.7143 2.85714,5.7143 -0.95238,0 -0.95238,-2.8572 0,-2.8572 1.34687,0 2.2548,1.6525 2.85714,2.8572 0.42592,0.8518 -0.95238,2.8571 0,2.8571 1.34687,0 2.85714,-1.5103 2.85714,-2.8571 0,-0.9524 -2.85714,-0.9524 -2.85714,0 0,1.3468 1.90476,1.9047 2.85714,2.8571 0.95239,0.9524 1.51028,2.8572 2.85715,2.8572 0.95238,0 -0.95238,-2.8572 0,-2.8572 0.95238,0 -0.67344,2.1837 0,2.8572 0.67343,0.6734 2.85714,-0.9524 2.85714,0 0,0.9523 -1.90476,0 -2.85714,0"
       id="path4158"
       inkscape:connector-curvature="0" />
    <path
       style="fill:none;fill-rule:evenodd;stroke:#000000;stroke-width:1px;stroke-linecap:butt;stroke-linejoin:miter;stroke-opacity:1"
       d="m 282.85714,840.93359 c -11.87134,0 -9.84545,-1.20468 -20,2.85714 -1.97727,0.79091 -3.64828,2.34064 -5.71428,2.85714 -1.84789,0.46198 -3.90727,-0.60233 -5.71429,0 -10.36083,3.45362 -11.22175,6.41243 -20,11.42858 -7.396,4.22628 -15.23809,7.61904 -22.85714,11.42857 -3.80953,1.90476 -7.96274,3.23869 -11.42857,5.71428 -3.28798,2.34856 -5.33894,6.14707 -8.57143,8.57143 -0.76191,0.57143 -1.90476,0 -2.85714,0 -2.85715,0.95238 -6.44184,0.72756 -8.57143,2.85714 -2.12959,2.12959 -0.44779,6.76442 -2.85715,8.57143 -2.28571,1.71429 -5.76977,-0.56033 -8.57142,0 -11.49749,2.2995 -1.31273,2.08494 -8.57143,5.71429 -0.85184,0.42592 -2.18371,-0.67344 -2.85715,0 -1.50584,1.50585 -1.08521,4.533 -2.85714,5.71428 -3.16971,2.11315 -8.25885,-2.11314 -11.42857,0 -1.77192,1.18129 -1.3513,4.20844 -2.85714,5.71429 -0.67344,0.67344 0.67343,-2.18371 0,-2.85714 -0.67344,-0.67344 -2.18371,-0.67344 -2.85715,0 -1.50584,1.50584 -0.95238,4.7619 -2.85714,5.71428 -1.20468,0.60234 -1.57939,-3.28306 -2.85714,-2.85714 -2.55551,0.85184 -3.30493,4.50961 -5.71429,5.71429 -0.85183,0.42591 0.67344,-3.53058 0,-2.85715 -1.50584,1.50585 -1.35129,4.20844 -2.85714,5.71429 -0.67344,0.67343 -1.90476,0 -2.85714,0 -1.90476,0 -4.01062,-0.85184 -5.71429,0 -0.85183,0.42592 0.67344,2.18371 0,2.85714 -0.67343,0.67344 -2.18371,-0.67343 -2.85714,0 -1.50585,1.50585 -1.3513,4.20844 -2.85714,5.71429 -0.67344,0.67343 0.85183,-2.43123 0,-2.85715 -1.70368,-0.85183 -3.80953,0 -5.71429,0 -0.952381,0 2.18371,-0.67343 2.85714,0 0.67344,0.67344 0.42592,2.00531 0,2.85715 -0.60234,1.20467 -1.51027,2.85714 -2.85714,2.85714 -1.34687,0 -2.857143,-1.51027 -2.857143,-2.85714 0,-0.95238 3.283063,-0.85184 2.857143,0 -1.204677,2.40935 -4.509609,3.30493 -5.714286,5.71428 -0.425917,0.85184 2.857143,-0.95238 2.857143,0 0,7.45231 -17.050576,-2.76486 -5.714286,8.57143 0.673435,0.67344 0.673435,-3.53058 0,-2.85714 -1.505846,1.50585 -0.952381,4.7619 -2.857142,5.71428 -1.204678,0.60234 -2.857143,-1.51027 -2.857143,-2.85714 0,-0.95238 2.183708,-0.67343 2.857143,0 0.673435,0.67344 0,1.90476 0,2.85714 0,0.95239 0.952381,2.85715 0,2.85715 -0.952381,0 0.673435,-2.18371 0,-2.85715 -0.673435,-0.67343 -1.904762,0 -2.857143,0 -0.952381,0 -2.857143,-0.95238 -2.857143,0 0,2.12959 1.351296,4.20844 2.857143,5.71429 0.673435,0.67344 -0.952381,-2.85714 0,-2.85714 0.952381,0 0.851835,2.43122 0,2.85714 -1.703671,0.85184 -4.862451,-1.70367 -5.714286,0 -0.952381,1.90476 1.351296,4.20844 2.857143,5.71429 0.673435,0.67343 0.952381,-2.85715 0,-2.85715 -2.129589,0 -4.208439,1.3513 -5.714286,2.85715 -0.673435,0.67343 3.283061,-0.85184 2.857143,0 -10.793651,21.5873 -5.555556,0.15873 -2.857143,2.85714 1.34687,1.34687 0,3.80952 0,5.71428 0,1.90477 0.952381,-16.19047 -5.714286,-2.85714 -0.952381,1.90476 1.351297,4.20844 2.857143,5.71429 0.634921,0.63492 -0.31746,-13.6508 -5.714285,-2.85715 -0.952381,1.90477 3.809523,3.80953 2.857142,5.71429 -0.851835,1.70367 -3.809523,0 -5.714285,0 -0.952381,0 3.530578,-0.67344 2.857143,0 -1.505847,1.50585 -4.20844,1.3513 -5.714286,2.85714 -0.673435,0.67344 2.857143,-0.95238 2.857143,0 0,2.12959 -1.351297,4.20844 -2.857143,5.71429 -0.673435,0.67343 0,-3.80953 0,-2.85714 0,1.90476 1.34687,4.36741 0,5.71428 -1.34687,1.34687 -3.809524,0 -5.714286,0 -3.809524,0 10.476191,-0.95238 2.857143,2.85714 -1.703671,0.85184 -4.86245,-1.70367 -5.714286,0 -0.952381,1.90477 1.351297,4.20844 2.857143,5.71429 0.673435,0.67344 0.673435,-3.53058 0,-2.85714 -1.505846,1.50584 -1.67586,3.94236 -2.857143,5.71428 -0.747109,1.12067 -2.857143,1.51028 -2.857143,2.85715 0,0.95238 1.904762,0 2.857143,0 -1.904762,1.90476 -4.86245,3.15875 -5.714285,5.71425 -0.425918,1.2778 2.254804,1.6525 2.857142,2.8572 0.425918,0.8518 0.851836,2.4312 0,2.8571 -1.70367,0.8518 -3.809523,0 -5.714285,0 -0.952381,0 2.857143,-0.9524 2.857143,0 0,2.1296 -1.67586,3.9424 -2.857143,5.7143 -0.747109,1.1207 -2.857143,1.5103 -2.857143,2.8572 0,0.9523 2.857143,-0.9524 2.857143,0 0,7.4179 -4.044966,5.7142 -8.571429,5.7142 -0.952381,0 3.283061,-0.8518 2.857143,0 -1.204677,2.4094 -3.809524,3.8096 -5.714286,5.7143 -0.952381,0.9524 2.857143,-4.204 2.857143,-2.8571 0,2.1296 -0.952381,4.7619 -2.857143,5.7143 -1.204677,0.6023 -3.809524,-1.9048 -2.857143,-2.8572 0.952381,-0.9524 2.857143,1.5103 2.857143,2.8572 0,0.9523 -2.183708,-0.6735 -2.857143,0 -1.505846,1.5058 -2.857142,3.5847 -2.857142,5.7143 0,1.3468 1.510272,-2.8572 2.857142,-2.8572 0.952381,0 0.673435,2.1837 0,2.8572 -1.707517,1.7075 -5.714285,-3.0883 -5.714285,2.8571 0,0.9524 2.857143,-0.9524 2.857143,0 0,2.1296 -1.351297,4.2084 -2.857143,5.7143 -0.673435,0.6734 0.673435,-2.1837 0,-2.8572 -0.673435,-0.6734 -2.857143,-0.9523 -2.857143,0 0,2.1296 1.351296,4.2085 2.857143,5.7143 0.673435,0.6735 0.673435,-2.1837 0,-2.8571 -0.673435,-0.6735 -1.904762,0 -2.857143,0 -0.952381,0 -2.857143,-0.9524 -2.857143,0 0,2.1296 2.857143,3.5847 2.857143,5.7143 0,1.3468 -1.652466,-2.2548 -2.857143,-2.8572 -0.851835,-0.4259 -2.857143,-0.9524 -2.857143,0 0,14.4338 4.325372,4.3254 2.857143,2.8572 -0.673435,-0.6735 -1.904762,0 -2.857143,0 -3.518502,0 -6.566121,-0.8519 0,5.7143 0.673435,0.6734 0.673435,-2.1838 0,-2.8572 -1.34687,-1.3469 -5.714286,1.9048 -5.714286,0 0,-0.9524 2.857143,-0.9524 2.857143,0 0,4.0573 -6.5400269,2.8572 -8.5714283,2.8572 -0.9523809,0 -2.8571428,0.9523 -2.8571428,0 0,-0.9524 2.1837078,0.6734 2.8571428,0 1.3468701,-1.3469 -1.9047619,-5.7143 0,-5.7143 0.952381,0 0,3.8095 0,2.8571 0,-1.9048 0,-3.8095 0,-5.7143 0,-0.9524 0.952381,2.8572 0,2.8572 -0.9523809,0 0,-1.9048 0,-2.8572 0,-0.9524 0,-1.9047 0,-2.8571"
       id="path4160"
       inkscape:connector-curvature="0" />
  </g>
</svg>
